<mxfile host="app.diagrams.net" agent="Mozilla/5.0 (Macintosh; Intel Mac OS X 10_15_7) AppleWebKit/537.36 (KHTML, like Gecko) Chrome/128.0.0.0 Safari/537.36" version="24.7.16">
  <diagram name="ページ1" id="s9IwQCWPO6H6lfeDucRA">
    <mxGraphModel dx="1049" dy="1408" grid="0" gridSize="10" guides="1" tooltips="1" connect="1" arrows="1" fold="1" page="0" pageScale="1" pageWidth="827" pageHeight="1169" math="0" shadow="0">
      <root>
        <mxCell id="0" />
        <mxCell id="1" parent="0" />
        <mxCell id="I_-lVkzNOk3cpRUBSmFp-1" value="AWS Cloud (Tokyo)" style="points=[[0,0],[0.25,0],[0.5,0],[0.75,0],[1,0],[1,0.25],[1,0.5],[1,0.75],[1,1],[0.75,1],[0.5,1],[0.25,1],[0,1],[0,0.75],[0,0.5],[0,0.25]];outlineConnect=0;gradientColor=none;html=1;whiteSpace=wrap;fontSize=12;fontStyle=0;container=1;pointerEvents=0;collapsible=0;recursiveResize=0;shape=mxgraph.aws4.group;grIcon=mxgraph.aws4.group_aws_cloud_alt;strokeColor=#232F3E;fillColor=none;verticalAlign=top;align=left;spacingLeft=30;fontColor=#232F3E;dashed=0;" vertex="1" parent="1">
          <mxGeometry x="-273" y="-342" width="807" height="420" as="geometry" />
        </mxCell>
        <mxCell id="I_-lVkzNOk3cpRUBSmFp-2" value="VPC &lt;font color=&quot;#000000&quot;&gt;&lt;u&gt;&lt;b&gt;10.0.0.0/16&lt;/b&gt;&lt;/u&gt;&lt;/font&gt;" style="points=[[0,0],[0.25,0],[0.5,0],[0.75,0],[1,0],[1,0.25],[1,0.5],[1,0.75],[1,1],[0.75,1],[0.5,1],[0.25,1],[0,1],[0,0.75],[0,0.5],[0,0.25]];outlineConnect=0;gradientColor=none;html=1;whiteSpace=wrap;fontSize=12;fontStyle=0;container=1;pointerEvents=0;collapsible=0;recursiveResize=0;shape=mxgraph.aws4.group;grIcon=mxgraph.aws4.group_vpc2;strokeColor=#8C4FFF;fillColor=none;verticalAlign=top;align=left;spacingLeft=30;fontColor=#AAB7B8;dashed=0;" vertex="1" parent="I_-lVkzNOk3cpRUBSmFp-1">
          <mxGeometry x="45.5" y="29" width="716" height="362" as="geometry" />
        </mxCell>
        <mxCell id="I_-lVkzNOk3cpRUBSmFp-5" value="Availability Zone (c)" style="fillColor=none;strokeColor=#147EBA;dashed=1;verticalAlign=top;fontStyle=0;fontColor=#147EBA;whiteSpace=wrap;html=1;align=center;" vertex="1" parent="I_-lVkzNOk3cpRUBSmFp-2">
          <mxGeometry x="369.5" y="28.5" width="283" height="305" as="geometry" />
        </mxCell>
        <mxCell id="I_-lVkzNOk3cpRUBSmFp-4" value="Availability Zone (a)" style="fillColor=none;strokeColor=#147EBA;dashed=1;verticalAlign=top;fontStyle=0;fontColor=#147EBA;whiteSpace=wrap;html=1;align=center;" vertex="1" parent="I_-lVkzNOk3cpRUBSmFp-2">
          <mxGeometry x="68.5" y="28.5" width="283" height="305" as="geometry" />
        </mxCell>
        <mxCell id="I_-lVkzNOk3cpRUBSmFp-8" value="Public subnet -a &lt;b&gt;&lt;font style=&quot;&quot; color=&quot;#000000&quot;&gt;&lt;u&gt;10.0.1.0/24&lt;/u&gt;&lt;/font&gt;&lt;/b&gt;" style="points=[[0,0],[0.25,0],[0.5,0],[0.75,0],[1,0],[1,0.25],[1,0.5],[1,0.75],[1,1],[0.75,1],[0.5,1],[0.25,1],[0,1],[0,0.75],[0,0.5],[0,0.25]];outlineConnect=0;gradientColor=none;html=1;whiteSpace=wrap;fontSize=12;fontStyle=0;container=1;pointerEvents=0;collapsible=0;recursiveResize=0;shape=mxgraph.aws4.group;grIcon=mxgraph.aws4.group_security_group;grStroke=0;strokeColor=#7AA116;fillColor=#F2F6E8;verticalAlign=top;align=left;spacingLeft=30;fontColor=#248814;dashed=0;" vertex="1" parent="I_-lVkzNOk3cpRUBSmFp-2">
          <mxGeometry x="88.25" y="61" width="243.5" height="130" as="geometry" />
        </mxCell>
        <mxCell id="I_-lVkzNOk3cpRUBSmFp-9" value="Public subnet -c&amp;nbsp;&lt;b&gt;&lt;font color=&quot;#000000&quot;&gt;&lt;u&gt;10.0.2.0/24&lt;/u&gt;&lt;/font&gt;&lt;/b&gt;" style="points=[[0,0],[0.25,0],[0.5,0],[0.75,0],[1,0],[1,0.25],[1,0.5],[1,0.75],[1,1],[0.75,1],[0.5,1],[0.25,1],[0,1],[0,0.75],[0,0.5],[0,0.25]];outlineConnect=0;gradientColor=none;html=1;whiteSpace=wrap;fontSize=12;fontStyle=0;container=1;pointerEvents=0;collapsible=0;recursiveResize=0;shape=mxgraph.aws4.group;grIcon=mxgraph.aws4.group_security_group;grStroke=0;strokeColor=#7AA116;fillColor=#F2F6E8;verticalAlign=top;align=left;spacingLeft=30;fontColor=#248814;dashed=0;" vertex="1" parent="I_-lVkzNOk3cpRUBSmFp-2">
          <mxGeometry x="389.25" y="61" width="243.5" height="130" as="geometry" />
        </mxCell>
        <mxCell id="I_-lVkzNOk3cpRUBSmFp-28" value="" style="sketch=0;outlineConnect=0;fontColor=#232F3E;gradientColor=none;fillColor=#8C4FFF;strokeColor=none;dashed=0;verticalLabelPosition=bottom;verticalAlign=top;align=center;html=1;fontSize=12;fontStyle=0;aspect=fixed;pointerEvents=1;shape=mxgraph.aws4.route_table;" vertex="1" parent="I_-lVkzNOk3cpRUBSmFp-9">
          <mxGeometry x="199.25" y="4" width="40" height="38.97" as="geometry" />
        </mxCell>
        <mxCell id="I_-lVkzNOk3cpRUBSmFp-10" value="Private subnet -a&amp;nbsp;&lt;b style=&quot;color: rgb(36, 136, 20);&quot;&gt;&lt;font color=&quot;#000000&quot;&gt;&lt;u&gt;10.0.11.0/24&lt;/u&gt;&lt;/font&gt;&lt;/b&gt;" style="points=[[0,0],[0.25,0],[0.5,0],[0.75,0],[1,0],[1,0.25],[1,0.5],[1,0.75],[1,1],[0.75,1],[0.5,1],[0.25,1],[0,1],[0,0.75],[0,0.5],[0,0.25]];outlineConnect=0;gradientColor=none;html=1;whiteSpace=wrap;fontSize=12;fontStyle=0;container=1;pointerEvents=0;collapsible=0;recursiveResize=0;shape=mxgraph.aws4.group;grIcon=mxgraph.aws4.group_security_group;grStroke=0;strokeColor=#00A4A6;fillColor=#E6F6F7;verticalAlign=top;align=left;spacingLeft=30;fontColor=#147EBA;dashed=0;" vertex="1" parent="I_-lVkzNOk3cpRUBSmFp-2">
          <mxGeometry x="88.25" y="195" width="243.5" height="130" as="geometry" />
        </mxCell>
        <mxCell id="I_-lVkzNOk3cpRUBSmFp-29" value="" style="sketch=0;outlineConnect=0;fontColor=#232F3E;gradientColor=none;fillColor=#8C4FFF;strokeColor=none;dashed=0;verticalLabelPosition=bottom;verticalAlign=top;align=center;html=1;fontSize=12;fontStyle=0;aspect=fixed;pointerEvents=1;shape=mxgraph.aws4.route_table;" vertex="1" parent="I_-lVkzNOk3cpRUBSmFp-10">
          <mxGeometry x="198.75" y="4" width="40" height="38.97" as="geometry" />
        </mxCell>
        <mxCell id="I_-lVkzNOk3cpRUBSmFp-11" value="Private subnet -c&amp;nbsp;&lt;b style=&quot;color: rgb(36, 136, 20);&quot;&gt;&lt;font color=&quot;#000000&quot;&gt;&lt;u&gt;10.0.12.0/24&lt;/u&gt;&lt;/font&gt;&lt;/b&gt;" style="points=[[0,0],[0.25,0],[0.5,0],[0.75,0],[1,0],[1,0.25],[1,0.5],[1,0.75],[1,1],[0.75,1],[0.5,1],[0.25,1],[0,1],[0,0.75],[0,0.5],[0,0.25]];outlineConnect=0;gradientColor=none;html=1;whiteSpace=wrap;fontSize=12;fontStyle=0;container=1;pointerEvents=0;collapsible=0;recursiveResize=0;shape=mxgraph.aws4.group;grIcon=mxgraph.aws4.group_security_group;grStroke=0;strokeColor=#00A4A6;fillColor=#E6F6F7;verticalAlign=top;align=left;spacingLeft=30;fontColor=#147EBA;dashed=0;" vertex="1" parent="I_-lVkzNOk3cpRUBSmFp-2">
          <mxGeometry x="389.25" y="195" width="243.5" height="130" as="geometry" />
        </mxCell>
        <mxCell id="I_-lVkzNOk3cpRUBSmFp-12" value="" style="sketch=0;outlineConnect=0;fontColor=#232F3E;gradientColor=none;fillColor=#8C4FFF;strokeColor=none;dashed=0;verticalLabelPosition=bottom;verticalAlign=top;align=center;html=1;fontSize=12;fontStyle=0;aspect=fixed;pointerEvents=1;shape=mxgraph.aws4.internet_gateway;" vertex="1" parent="I_-lVkzNOk3cpRUBSmFp-2">
          <mxGeometry x="338.88" y="-19" width="38.25" height="38.25" as="geometry" />
        </mxCell>
        <mxCell id="I_-lVkzNOk3cpRUBSmFp-17" value="" style="sketch=0;outlineConnect=0;fontColor=#232F3E;gradientColor=none;fillColor=#8C4FFF;strokeColor=none;dashed=0;verticalLabelPosition=bottom;verticalAlign=top;align=center;html=1;fontSize=12;fontStyle=0;aspect=fixed;pointerEvents=1;shape=mxgraph.aws4.route_table;" vertex="1" parent="I_-lVkzNOk3cpRUBSmFp-2">
          <mxGeometry x="287" y="65" width="40" height="38.97" as="geometry" />
        </mxCell>
        <mxCell id="I_-lVkzNOk3cpRUBSmFp-30" value="" style="sketch=0;outlineConnect=0;fontColor=#232F3E;gradientColor=none;fillColor=#8C4FFF;strokeColor=none;dashed=0;verticalLabelPosition=bottom;verticalAlign=top;align=center;html=1;fontSize=12;fontStyle=0;aspect=fixed;pointerEvents=1;shape=mxgraph.aws4.route_table;" vertex="1" parent="I_-lVkzNOk3cpRUBSmFp-2">
          <mxGeometry x="588.5" y="198" width="40" height="38.97" as="geometry" />
        </mxCell>
        <mxCell id="I_-lVkzNOk3cpRUBSmFp-14" value="" style="endArrow=none;html=1;rounded=0;fontSize=12;startSize=8;endSize=8;curved=1;" edge="1" parent="1" source="I_-lVkzNOk3cpRUBSmFp-12" target="I_-lVkzNOk3cpRUBSmFp-13">
          <mxGeometry width="50" height="50" relative="1" as="geometry">
            <mxPoint x="91" y="-138" as="sourcePoint" />
            <mxPoint x="141" y="-188" as="targetPoint" />
          </mxGeometry>
        </mxCell>
        <mxCell id="I_-lVkzNOk3cpRUBSmFp-13" value="Internet" style="sketch=0;outlineConnect=0;fontColor=#232F3E;gradientColor=none;fillColor=#232F3D;strokeColor=none;dashed=0;verticalLabelPosition=bottom;verticalAlign=top;align=center;html=1;fontSize=12;fontStyle=0;aspect=fixed;pointerEvents=1;shape=mxgraph.aws4.internet;" vertex="1" parent="1">
          <mxGeometry x="104" y="-424" width="53" height="32.62" as="geometry" />
        </mxCell>
      </root>
    </mxGraphModel>
  </diagram>
</mxfile>
